# Blender 4.5.3 LTS
# www.blender.org
mtllib SM_BlockParticle.mtl
o Cube
v -0.084931 0.428353 0.428353
v -0.084931 0.428353 -0.428353
v 0.084931 0.428353 0.428353
v 0.084931 0.428353 -0.428353
v -0.084931 -0.537580 -0.214177
v -0.084931 -0.537580 0.214177
v -0.084931 0.319126 0.214177
v -0.084931 0.319126 -0.214177
v 0.084931 -0.537580 0.214177
v 0.084931 -0.537580 -0.214177
v 0.084931 0.319126 -0.214177
v 0.084931 0.319126 0.214177
v -0.084931 -0.613547 -0.069940
v -0.084931 -0.613547 0.069940
v -0.084931 -0.571336 0.000000
v -0.084931 0.243159 0.069940
v -0.084931 0.243159 -0.069940
v -0.084931 0.127275 0.000000
v 0.084931 -0.613547 0.069940
v 0.084931 -0.613547 -0.069940
v 0.084931 -0.571336 0.000000
v 0.084931 0.243159 -0.069940
v 0.084931 0.243159 0.069940
v 0.084931 0.127275 0.000000
v -0.084931 -0.474764 0.337349
v -0.084931 -0.326197 0.428353
v -0.084931 -0.412026 0.401698
v -0.084931 -0.326197 -0.428353
v -0.084931 -0.474764 -0.337349
v -0.084931 -0.412026 -0.401698
v 0.084931 -0.326197 0.428353
v 0.084931 -0.474764 0.337349
v 0.084931 -0.412026 0.401698
v 0.084931 -0.474764 -0.337349
v 0.084931 -0.326197 -0.428353
v 0.084931 -0.412026 -0.401698
vn -0.0000 0.8908 -0.4543
vn -0.0000 0.8908 0.4543
vn -1.0000 -0.0000 -0.0000
vn 1.0000 -0.0000 -0.0000
vn -0.0000 1.0000 -0.0000
vn -0.0000 -1.0000 -0.0000
vn -0.0000 -0.8848 -0.4660
vn -0.0000 -0.8848 0.4660
vn -0.0000 0.8848 -0.4660
vn -0.0000 0.8848 0.4660
vn -0.0000 -0.7160 -0.6981
vn -0.0000 -0.2966 -0.9550
vn -0.0000 -0.7160 0.6981
vn -0.0000 -0.2966 0.9550
vn -0.0000 -0.0000 1.0000
vn -0.0000 -0.8908 0.4543
vn -0.0000 -0.0000 -1.0000
vn -0.0000 -0.8908 -0.4543
vt 0.625000 0.687500
vt 0.875000 0.687500
vt 0.875000 0.750000
vt 0.625000 0.750000
vt 0.625000 0.500000
vt 0.875000 0.500000
vt 0.875000 0.562500
vt 0.625000 0.562500
vt 0.375175 0.145077
vt 0.375000 0.104590
vt 0.398067 0.125000
vt 0.625000 0.104590
vt 0.625000 0.144521
vt 0.601933 0.125000
vt 0.375000 0.645410
vt 0.375000 0.604650
vt 0.398067 0.625000
vt 0.625000 0.604590
vt 0.625000 0.645248
vt 0.601933 0.625000
vt 0.875000 0.645410
vt 0.875000 0.604590
vt 0.125000 0.645410
vt 0.125000 0.604590
vt 0.625000 0.187500
vt 0.375000 0.187500
vt 0.125000 0.562500
vt 0.375000 0.562500
vt 0.375000 0.062500
vt 0.625000 0.062500
vt 0.375000 0.687500
vt 0.125000 0.687500
vt 0.375000 0.526556
vt 0.125000 0.526556
vt 0.125000 0.500000
vt 0.379715 0.504200
vt 0.381123 0.244545
vt 0.404811 0.250000
vt 0.404811 0.500000
vt 0.125000 0.723443
vt 0.375000 0.723443
vt 0.379715 0.745800
vt 0.125000 0.750000
vt 0.375000 1.000000
vt 0.404811 0.750000
vt 0.404811 1.000000
vt 0.375000 0.026556
vt 0.383731 0.007778
vt 0.404811 0.000000
vt 0.625000 0.000000
vt 0.625000 1.000000
vt 0.625000 0.250000
vt 0.375000 0.223444
s 0
f 12/1/1 7/2/1 1/3/1 3/4/1
f 4/5/2 2/6/2 8/7/2 11/8/2
f 13/9/3 14/10/3 15/11/3
f 16/12/3 17/13/3 18/14/3
f 19/15/4 20/16/4 21/17/4
f 22/18/4 23/19/4 24/20/4
f 16/21/5 23/19/5 22/18/5 17/22/5
f 19/15/6 14/23/6 13/24/6 20/16/6
f 13/9/3 15/11/3 18/14/3 17/13/3 8/25/3 5/26/3
f 5/27/7 10/28/7 20/16/7 13/24/7
f 6/29/3 7/30/3 16/12/3 18/14/3 15/11/3 14/10/3
f 14/23/8 19/15/8 9/31/8 6/32/8
f 23/19/9 16/21/9 7/2/9 12/1/9
f 11/8/10 8/7/10 17/22/10 22/18/10
f 19/15/4 21/17/4 24/20/4 23/19/4 12/1/4 9/31/4
f 10/28/4 11/8/4 22/18/4 24/20/4 21/17/4 20/16/4
f 34/33/11 29/34/11 30/35/11 36/36/11
f 36/36/12 30/37/12 28/38/12 35/39/12
f 25/40/13 32/41/13 33/42/13 27/43/13
f 27/44/14 33/42/14 31/45/14 26/46/14
f 25/47/3 27/48/3 26/49/3 1/50/3 7/30/3 6/29/3
f 31/45/15 3/4/15 1/51/15 26/46/15
f 6/32/16 9/31/16 32/41/16 25/40/16
f 28/38/17 2/52/17 4/5/17 35/39/17
f 29/34/18 34/33/18 10/28/18 5/27/18
f 5/26/3 8/25/3 2/52/3 28/38/3 30/37/3 29/53/3
f 9/31/4 12/1/4 3/4/4 31/45/4 33/42/4 32/41/4
f 34/33/4 36/36/4 35/39/4 4/5/4 11/8/4 10/28/4
